<svg width="39" height="38" viewBox="0 0 39 38" fill="none" xmlns="http://www.w3.org/2000/svg">
<rect x="0.986572" y="0.150391" width="37.5" height="37.5" rx="18.75" fill="url(#paint0_linear_660_2336)"/>
<g filter="url(#filter0_i_660_2336)">
<path fill-rule="evenodd" clip-rule="evenodd" d="M23.8263 8.47705C23.16 8.47705 22.649 9.07049 22.7417 9.73033C22.8897 10.7839 23.1002 12.3894 23.2702 14.105C23.1181 14.0975 22.9708 14.0929 22.8321 14.0922C21.9024 14.0873 20.6112 14.251 19.9375 14.3468C19.6774 14.3838 19.4875 14.6073 19.4875 14.87V15.7655C19.4875 16.0863 19.7675 16.3359 20.0866 16.3035C20.7896 16.2322 21.9686 16.1281 22.8321 16.1315C23.0234 16.1322 23.231 16.1384 23.4453 16.1482C23.514 17.1214 23.5572 18.0747 23.5567 18.93C23.5551 21.8862 23.0304 26.0191 22.7421 28.0678C22.6492 28.7277 23.1602 29.3215 23.8266 29.3215H25.8211C26.3736 29.3215 26.8369 28.9091 26.8926 28.3594C27.0875 26.4343 27.4966 22.0277 27.4978 18.93C27.499 15.811 27.0879 11.3728 26.8924 9.43923C26.8368 8.8895 26.3735 8.47705 25.821 8.47705H23.8263ZM13.0785 8.47705C12.4122 8.47705 11.9011 9.07049 11.9938 9.73033C12.283 11.7884 12.8105 15.9526 12.8088 18.93C12.8072 21.8862 12.2825 26.0191 11.9942 28.0678C11.9013 28.7277 12.4123 29.3215 13.0787 29.3215H15.0732C15.6257 29.3215 16.089 28.9091 16.1447 28.3594C16.3397 26.4343 16.7487 22.0277 16.7499 18.93C16.75 18.8275 16.7496 18.7235 16.7487 18.6183C17.6699 18.6126 18.8996 18.4564 19.5514 18.3637C19.8115 18.3267 20.0014 18.1032 20.0014 17.8405V16.945C20.0014 16.6242 19.7214 16.3746 19.4023 16.407C18.7087 16.4773 17.5515 16.5796 16.6914 16.5791C16.571 13.8757 16.2944 10.9215 16.1445 9.43923C16.089 8.8895 15.6256 8.47705 15.0731 8.47705H13.0785Z" fill="white"/>
</g>
<path d="M22.7417 9.73033L22.6387 9.7448L22.7417 9.73033ZM23.2702 14.105L23.3738 14.0948L23.3857 14.215L23.265 14.209L23.2702 14.105ZM22.8321 14.0922L22.8315 14.1962L22.8321 14.0922ZM19.9375 14.3468L19.9521 14.4498L19.9375 14.3468ZM20.0866 16.3035L20.0971 16.407L20.0866 16.3035ZM22.8321 16.1315L22.8316 16.2355L22.8321 16.1315ZM23.4453 16.1482L23.4501 16.0443L23.5426 16.0485L23.5491 16.1409L23.4453 16.1482ZM23.5567 18.93L23.6608 18.93L23.5567 18.93ZM22.7421 28.0678L22.639 28.0533L22.7421 28.0678ZM26.8926 28.3594L26.9961 28.3699L26.8926 28.3594ZM27.4978 18.93L27.6019 18.93L27.4978 18.93ZM26.8924 9.43923L26.996 9.42877L26.8924 9.43923ZM11.9938 9.73033L12.0969 9.71585L11.9938 9.73033ZM12.8088 18.93L12.9129 18.93L12.8088 18.93ZM11.9942 28.0678L12.0972 28.0823L11.9942 28.0678ZM16.1447 28.3594L16.0412 28.3489L16.1447 28.3594ZM16.7499 18.93L16.6459 18.9299V18.9299L16.7499 18.93ZM16.7487 18.6183L16.6447 18.6191L16.6439 18.5149L16.7481 18.5142L16.7487 18.6183ZM19.5514 18.3637L19.5661 18.4667H19.5661L19.5514 18.3637ZM19.4023 16.407L19.4128 16.5105L19.4023 16.407ZM16.6914 16.5791L16.6913 16.6831L16.5919 16.6831L16.5874 16.5837L16.6914 16.5791ZM16.1445 9.43923L16.2481 9.42877V9.42877L16.1445 9.43923ZM22.6387 9.7448C22.5373 9.02299 23.0962 8.37299 23.8263 8.37299V8.58111C23.2239 8.58111 22.7608 9.118 22.8448 9.71585L22.6387 9.7448ZM23.1667 14.1153C22.9969 12.4015 22.7866 10.7975 22.6387 9.7448L22.8448 9.71585C22.9929 10.7703 23.2036 12.3772 23.3738 14.0948L23.1667 14.1153ZM22.8326 13.9881C22.9732 13.9889 23.1221 13.9935 23.2754 14.0011L23.265 14.209C23.1141 14.2015 22.9684 14.1969 22.8315 14.1962L22.8326 13.9881ZM19.9228 14.2438C20.5963 14.148 21.8944 13.9832 22.8326 13.9881L22.8315 14.1962C21.9104 14.1914 20.6262 14.354 19.9521 14.4498L19.9228 14.2438ZM19.3835 14.87C19.3835 14.5566 19.6103 14.2883 19.9228 14.2438L19.9521 14.4498C19.7445 14.4794 19.5916 14.6579 19.5916 14.87H19.3835ZM19.3835 15.7655V14.87H19.5916V15.7655H19.3835ZM20.0971 16.407C19.7175 16.4455 19.3835 16.1488 19.3835 15.7655H19.5916C19.5916 16.0238 19.8174 16.2262 20.0761 16.2L20.0971 16.407ZM22.8316 16.2355C21.9742 16.2322 20.8001 16.3357 20.0971 16.407L20.0761 16.2C20.7791 16.1287 21.963 16.024 22.8325 16.0274L22.8316 16.2355ZM23.4406 16.2522C23.2272 16.2424 23.0211 16.2363 22.8316 16.2355L22.8325 16.0274C23.0256 16.0282 23.2347 16.0344 23.4501 16.0443L23.4406 16.2522ZM23.4527 18.9299C23.4531 18.0779 23.4101 17.1272 23.3415 16.1556L23.5491 16.1409C23.6179 17.1155 23.6613 18.0714 23.6608 18.93L23.4527 18.9299ZM22.639 28.0533C22.9274 26.0043 23.451 21.878 23.4527 18.9299L23.6608 18.93C23.6591 21.8944 23.1334 26.0339 22.8451 28.0823L22.639 28.0533ZM23.8266 29.4256C23.0963 29.4256 22.5374 28.7752 22.639 28.0533L22.8451 28.0823C22.761 28.6802 23.2241 29.2174 23.8266 29.2174V29.4256ZM25.8211 29.4256H23.8266V29.2174H25.8211V29.4256ZM26.9961 28.3699C26.935 28.9735 26.4261 29.4256 25.8211 29.4256V29.2174C26.321 29.2174 26.7388 28.8446 26.789 28.3489L26.9961 28.3699ZM27.6019 18.93C27.6006 22.0337 27.191 26.4451 26.9961 28.3699L26.789 28.3489C26.984 26.4235 27.3925 22.0218 27.3937 18.9299L27.6019 18.93ZM26.996 9.42877C27.1914 11.3619 27.6031 15.8051 27.6019 18.93L27.3937 18.9299C27.395 15.8169 26.9844 11.3836 26.7889 9.4497L26.996 9.42877ZM25.821 8.37299C26.4261 8.37299 26.9349 8.82503 26.996 9.42877L26.7889 9.4497C26.7388 8.95397 26.321 8.58111 25.821 8.58111V8.37299ZM23.8263 8.37299H25.821V8.58111H23.8263V8.37299ZM11.8908 9.7448C11.7894 9.02299 12.3483 8.37299 13.0785 8.37299V8.58111C12.476 8.58111 12.0129 9.118 12.0969 9.71585L11.8908 9.7448ZM12.7048 18.9299C12.7064 15.9608 12.18 11.8032 11.8908 9.7448L12.0969 9.71585C12.386 11.7736 12.9146 15.9445 12.9129 18.93L12.7048 18.9299ZM11.8912 28.0533C12.1795 26.0043 12.7031 21.878 12.7048 18.9299L12.9129 18.93C12.9112 21.8944 12.3855 26.0339 12.0972 28.0823L11.8912 28.0533ZM13.0787 29.4256C12.3484 29.4256 11.7896 28.7752 11.8912 28.0533L12.0972 28.0823C12.0131 28.6802 12.4762 29.2174 13.0787 29.2174V29.4256ZM15.0732 29.4256H13.0787V29.2174H15.0732V29.4256ZM16.2482 28.3699C16.1871 28.9735 15.6783 29.4256 15.0732 29.4256V29.2174C15.5732 29.2174 15.991 28.8446 16.0412 28.3489L16.2482 28.3699ZM16.854 18.93C16.8527 22.0337 16.4432 26.4451 16.2482 28.3699L16.0412 28.3489C16.2362 26.4235 16.6446 22.0218 16.6459 18.9299L16.854 18.93ZM16.8528 18.6175C16.8536 18.723 16.854 18.8272 16.854 18.93L16.6459 18.9299C16.6459 18.8277 16.6455 18.7241 16.6447 18.6191L16.8528 18.6175ZM16.7481 18.5142C17.6615 18.5086 18.885 18.3534 19.5368 18.2606L19.5661 18.4667C18.9142 18.5594 17.6783 18.7166 16.7494 18.7223L16.7481 18.5142ZM19.5368 18.2606C19.7444 18.2311 19.8973 18.0526 19.8973 17.8405H20.1054C20.1054 18.1539 19.8786 18.4222 19.5661 18.4667L19.5368 18.2606ZM19.8973 17.8405V16.945H20.1054V17.8405H19.8973ZM19.8973 16.945C19.8973 16.6867 19.6715 16.4843 19.4128 16.5105L19.3918 16.3035C19.7714 16.265 20.1054 16.5617 20.1054 16.945H19.8973ZM19.4128 16.5105C18.7191 16.5809 17.5572 16.6837 16.6913 16.6831L16.6915 16.475C17.5458 16.4756 18.6983 16.3738 19.3918 16.3035L19.4128 16.5105ZM16.2481 9.42877C16.398 10.9115 16.6748 13.8681 16.7953 16.5745L16.5874 16.5837C16.4672 13.8833 16.1908 10.9314 16.041 9.4497L16.2481 9.42877ZM15.0731 8.37299C15.6782 8.37299 16.187 8.82503 16.2481 9.42877L16.041 9.4497C15.9909 8.95397 15.5731 8.58111 15.0731 8.58111V8.37299ZM13.0785 8.37299H15.0731V8.58111H13.0785V8.37299Z" fill="url(#paint1_linear_660_2336)"/>
<defs>
<filter id="filter0_i_660_2336" x="11.8789" y="8.37305" width="15.7229" height="21.6771" filterUnits="userSpaceOnUse" color-interpolation-filters="sRGB">
<feFlood flood-opacity="0" result="BackgroundImageFix"/>
<feBlend mode="normal" in="SourceGraphic" in2="BackgroundImageFix" result="shape"/>
<feColorMatrix in="SourceAlpha" type="matrix" values="0 0 0 0 0 0 0 0 0 0 0 0 0 0 0 0 0 0 127 0" result="hardAlpha"/>
<feOffset dy="0.624339"/>
<feGaussianBlur stdDeviation="0.520283"/>
<feComposite in2="hardAlpha" operator="arithmetic" k2="-1" k3="1"/>
<feColorMatrix type="matrix" values="0 0 0 0 0.764706 0 0 0 0 0.168627 0 0 0 0 0.560784 0 0 0 0.05 0"/>
<feBlend mode="normal" in2="shape" result="effect1_innerShadow_660_2336"/>
</filter>
<linearGradient id="paint0_linear_660_2336" x1="-6.23772" y1="5.88977" x2="36.4474" y2="36.8981" gradientUnits="userSpaceOnUse">
<stop stop-color="white"/>
<stop offset="0.375" stop-color="#A2CD37"/>
<stop offset="1" stop-color="#C1358A"/>
</linearGradient>
<linearGradient id="paint1_linear_660_2336" x1="32.259" y1="3.89244" x2="13.3918" y2="30.6294" gradientUnits="userSpaceOnUse">
<stop stop-color="#C32B8F"/>
<stop offset="1" stop-color="#A2CD37"/>
</linearGradient>
</defs>
</svg>
