<svg width="20" height="21" viewBox="0 0 20 21" fill="none" xmlns="http://www.w3.org/2000/svg">
<path d="M15 5.12451H17C18.1046 5.12451 19 6.01994 19 7.12451V13.1245C19 14.2291 18.1046 15.1245 17 15.1245H15V19.1245L11 15.1245H7C6.44772 15.1245 5.94772 14.9007 5.58579 14.5387M5.58579 14.5387L9 11.1245H13C14.1046 11.1245 15 10.2291 15 9.12451V3.12451C15 2.01994 14.1046 1.12451 13 1.12451H3C1.89543 1.12451 1 2.01994 1 3.12451V9.12451C1 10.2291 1.89543 11.1245 3 11.1245H5V15.1245L5.58579 14.5387Z" stroke="#737373" stroke-width="2" stroke-linecap="round" stroke-linejoin="round"/>
</svg>
