<svg width="20" height="21" viewBox="0 0 20 21" fill="none" xmlns="http://www.w3.org/2000/svg">
<path d="M7.66347 15.1245H12.3364M9.99995 1.12451V2.12451M16.3639 3.76055L15.6568 4.46766M19 10.1245H18M2 10.1245H1M4.34309 4.46766L3.63599 3.76055M6.46441 13.6601C4.51179 11.7074 4.51179 8.54162 6.46441 6.589C8.41703 4.63638 11.5829 4.63638 13.5355 6.589C15.4881 8.54162 15.4881 11.7074 13.5355 13.6601L12.9884 14.2072C12.3555 14.8401 11.9999 15.6984 11.9999 16.5935V17.1245C11.9999 18.2291 11.1045 19.1245 9.99995 19.1245C8.89538 19.1245 7.99995 18.2291 7.99995 17.1245V16.5935C7.99995 15.6984 7.6444 14.8401 7.01151 14.2072L6.46441 13.6601Z" stroke="#737373" stroke-width="2" stroke-linecap="round" stroke-linejoin="round"/>
</svg>
