<svg width="22" height="20" viewBox="0 0 22 20" fill="none" xmlns="http://www.w3.org/2000/svg">
<path d="M10.049 1.70777C10.3483 0.786502 11.6517 0.786503 11.951 1.70777L13.4699 6.38167C13.6038 6.79366 13.9877 7.0726 14.4209 7.07262L19.3354 7.07281C20.3041 7.07284 20.7068 8.31239 19.9232 8.8818L15.9474 11.7706C15.5969 12.0253 15.4503 12.4766 15.5841 12.8886L17.1026 17.5626C17.4019 18.4839 16.3475 19.25 15.5638 18.6806L11.5878 15.7921C11.2373 15.5375 10.7627 15.5375 10.4122 15.7921L6.43622 18.6806C5.65252 19.25 4.5981 18.4839 4.8974 17.5626L6.41589 12.8886C6.54974 12.4766 6.40309 12.0253 6.05263 11.7706L2.07683 8.8818C1.29317 8.31239 1.69592 7.07284 2.66461 7.07281L7.57911 7.07262C8.01231 7.0726 8.39623 6.79367 8.53011 6.38167L10.049 1.70777Z" stroke="#737373" stroke-width="2"/>
</svg>
