<svg xmlns="http://www.w3.org/2000/svg" width="25" height="25" viewBox="0 0 25 25" fill="none">
  <path d="M17.4673 8.56494H19.4673C20.5719 8.56494 21.4673 9.46037 21.4673 10.5649V16.5649C21.4673 17.6695 20.5719 18.5649 19.4673 18.5649H17.4673V22.5649L13.4673 18.5649H9.46729C8.915 18.5649 8.415 18.3411 8.05307 17.9792M8.05307 17.9792L11.4673 14.5649H15.4673C16.5719 14.5649 17.4673 13.6695 17.4673 12.5649V6.56494C17.4673 5.46037 16.5719 4.56494 15.4673 4.56494H5.46729C4.36272 4.56494 3.46729 5.46037 3.46729 6.56494V12.5649C3.46729 13.6695 4.36272 14.5649 5.46729 14.5649H7.46729V18.5649L8.05307 17.9792Z" stroke="#111827" stroke-width="2" stroke-linecap="round" stroke-linejoin="round"/>
</svg>