<svg xmlns="http://www.w3.org/2000/svg" width="25" height="25" viewBox="0 0 25 25" fill="none">
<path d="M17.4673 20.5649H22.4673V18.5649C22.4673 16.9081 21.1241 15.5649 19.4673 15.5649C18.5117 15.5649 17.6604 16.0117 17.111 16.7078M17.4673 20.5649H7.46729M17.4673 20.5649V18.5649C17.4673 17.9087 17.3409 17.282 17.111 16.7078M7.46729 20.5649H2.46729V18.5649C2.46729 16.9081 3.81043 15.5649 5.46729 15.5649C6.42289 15.5649 7.27414 16.0117 7.82353 16.7078M7.46729 20.5649V18.5649C7.46729 17.9087 7.59371 17.282 7.82353 16.7078M7.82353 16.7078C8.56079 14.866 10.3621 13.5649 12.4673 13.5649C14.5725 13.5649 16.3738 14.866 17.111 16.7078M15.4673 7.56494C15.4673 9.2218 14.1241 10.5649 12.4673 10.5649C10.8104 10.5649 9.46729 9.2218 9.46729 7.56494C9.46729 5.90809 10.8104 4.56494 12.4673 4.56494C14.1241 4.56494 15.4673 5.90809 15.4673 7.56494ZM21.4673 10.5649C21.4673 11.6695 20.5719 12.5649 19.4673 12.5649C18.3627 12.5649 17.4673 11.6695 17.4673 10.5649C17.4673 9.46037 18.3627 8.56494 19.4673 8.56494C20.5719 8.56494 21.4673 9.46037 21.4673 10.5649ZM7.46729 10.5649C7.46729 11.6695 6.57185 12.5649 5.46729 12.5649C4.36272 12.5649 3.46729 11.6695 3.46729 10.5649C3.46729 9.46037 4.36272 8.56494 5.46729 8.56494C6.57185 8.56494 7.46729 9.46037 7.46729 10.5649Z" stroke="#111827" stroke-width="2" stroke-linecap="round" stroke-linejoin="round"/>
</svg>