<svg xmlns="http://www.w3.org/2000/svg" width="37" height="37" viewBox="0 0 37 37" fill="none">
<rect x="3.62671" y="2.9043" width="30" height="30" rx="15" fill="url(#paint0_linear_173_44969)"/>
<g filter="url(#filter0_i_173_44969)">
  <path fill-rule="evenodd" clip-rule="evenodd" d="M21.8853 9.56592C21.3591 9.56592 20.9556 10.0342 21.0289 10.5552C21.1474 11.3978 21.3168 12.6886 21.4535 14.0684C21.3317 14.0624 21.2138 14.0587 21.1027 14.0581C20.3568 14.0542 19.3201 14.1859 18.7824 14.2625C18.577 14.2918 18.4271 14.4682 18.4271 14.6756V15.403C18.4271 15.6563 18.6479 15.8534 18.8999 15.8278C19.4615 15.7708 20.4093 15.6869 21.1027 15.6896C21.2558 15.6902 21.422 15.6951 21.5936 15.703C21.6486 16.4815 21.6831 17.244 21.6827 17.9283C21.6814 20.2997 21.2594 23.6176 21.0291 25.2519C20.9557 25.7729 21.3593 26.2415 21.8855 26.2415H23.5043C23.9406 26.2415 24.3064 25.9159 24.3504 25.4819C24.5059 23.9472 24.8346 20.4119 24.8356 17.9283C24.8366 15.4276 24.5063 11.867 24.3503 10.3255C24.3063 9.89148 23.9405 9.56592 23.5042 9.56592H21.8853ZM13.2868 9.56592C12.7607 9.56592 12.3571 10.0342 12.4304 10.5552C12.6613 12.197 13.0856 15.5399 13.0843 17.9283C13.083 20.2997 12.6609 23.6176 12.4307 25.2519C12.3573 25.7729 12.7608 26.2415 13.287 26.2415H14.9059C15.3421 26.2415 15.708 25.9159 15.7519 25.4819C15.9075 23.9472 16.2362 20.4119 16.2372 17.9283C16.2372 17.8463 16.2369 17.7632 16.2362 17.6791C16.9753 17.6746 17.9627 17.5489 18.4829 17.4748C18.6883 17.4455 18.8383 17.2691 18.8383 17.0616V16.3342C18.8383 16.0809 18.6174 15.8838 18.3654 15.9094C17.8112 15.9657 16.8811 16.0482 16.1903 16.0478C16.0938 13.8788 15.8715 11.508 15.7518 10.3255C15.7079 9.89148 15.3421 9.56592 14.9058 9.56592H13.2868Z" fill="white"/>
</g>
<path d="M21.0289 10.5552L20.9475 10.5667L21.0289 10.5552ZM21.4535 14.0684L21.5353 14.0603L21.5447 14.1552L21.4495 14.1505L21.4535 14.0684ZM21.1027 14.0581L21.1022 14.1403L21.1027 14.0581ZM18.7824 14.2625L18.7708 14.1812L18.7824 14.2625ZM18.8999 15.8278L18.8916 15.7461L18.8999 15.8278ZM21.1027 15.6896L21.103 15.6074L21.1027 15.6896ZM21.5936 15.703L21.5974 15.6209L21.6705 15.6243L21.6756 15.6972L21.5936 15.703ZM21.6827 17.9283L21.6006 17.9282L21.6827 17.9283ZM21.0291 25.2519L21.1105 25.2633L21.0291 25.2519ZM24.3504 25.4819L24.4321 25.4902L24.3504 25.4819ZM24.8356 17.9283L24.7534 17.9282L24.8356 17.9283ZM24.3503 10.3255L24.2685 10.3338L24.3503 10.3255ZM12.4304 10.5552L12.3491 10.5667L12.4304 10.5552ZM13.0843 17.9283L13.0021 17.9282L13.0843 17.9283ZM12.4307 25.2519L12.3493 25.2404L12.4307 25.2519ZM15.7519 25.4819L15.8337 25.4902L15.7519 25.4819ZM16.2372 17.9283L16.3193 17.9283L16.2372 17.9283ZM16.2362 17.6791L16.154 17.6798L16.1534 17.5975L16.2357 17.5969L16.2362 17.6791ZM18.4829 17.4748L18.4945 17.5561L18.4829 17.4748ZM18.3654 15.9094L18.3737 15.9912L18.3654 15.9094ZM16.1903 16.0478L16.1903 16.1299L16.1117 16.1299L16.1083 16.0514L16.1903 16.0478ZM15.7518 10.3255L15.6701 10.3338V10.3338L15.7518 10.3255ZM20.9475 10.5667C20.8673 9.99666 21.3087 9.48375 21.8853 9.48375V9.64808C21.4095 9.64808 21.0438 10.0718 21.1102 10.5438L20.9475 10.5667ZM21.3718 14.0765C21.2352 12.6982 21.0659 11.4086 20.9475 10.5667L21.1102 10.5438C21.2288 11.3871 21.3984 12.679 21.5353 14.0603L21.3718 14.0765ZM21.1031 13.976C21.2157 13.9766 21.3349 13.9803 21.4576 13.9864L21.4495 14.1505C21.3286 14.1445 21.2119 14.1409 21.1022 14.1403L21.1031 13.976ZM18.7708 14.1812C19.3083 14.1046 20.3505 13.972 21.1031 13.976L21.1022 14.1403C20.3632 14.1364 19.3319 14.2672 18.794 14.3439L18.7708 14.1812ZM18.3449 14.6756C18.3449 14.4282 18.5241 14.2163 18.7708 14.1812L18.794 14.3439C18.63 14.3672 18.5092 14.5082 18.5092 14.6756H18.3449ZM18.3449 15.403V14.6756H18.5092V15.403H18.3449ZM18.9083 15.9096C18.6085 15.94 18.3449 15.7056 18.3449 15.403H18.5092C18.5092 15.607 18.6874 15.7668 18.8916 15.7461L18.9083 15.9096ZM21.1024 15.7717C20.4138 15.7691 19.4698 15.8525 18.9083 15.9096L18.8916 15.7461C19.4532 15.689 20.4048 15.6047 21.103 15.6074L21.1024 15.7717ZM21.5899 15.7851C21.4191 15.7772 21.254 15.7723 21.1024 15.7717L21.103 15.6074C21.2576 15.608 21.425 15.613 21.5974 15.6209L21.5899 15.7851ZM21.6006 17.9282C21.601 17.2466 21.5665 16.4861 21.5117 15.7088L21.6756 15.6972C21.7306 16.4769 21.7653 17.2415 21.7649 17.9283L21.6006 17.9282ZM20.9478 25.2404C21.1781 23.6059 21.5992 20.2932 21.6006 17.9282L21.7649 17.9283C21.7636 20.3062 21.3407 23.6293 21.1105 25.2633L20.9478 25.2404ZM21.8855 26.3236C21.3089 26.3236 20.8675 25.8105 20.9478 25.2404L21.1105 25.2633C21.044 25.7354 21.4097 26.1593 21.8855 26.1593V26.3236ZM23.5043 26.3236H21.8855V26.1593H23.5043V26.3236ZM24.4321 25.4902C24.3838 25.9669 23.9821 26.3236 23.5043 26.3236V26.1593C23.8991 26.1593 24.229 25.865 24.2686 25.4736L24.4321 25.4902ZM24.9178 17.9283C24.9168 20.4166 24.5877 23.9558 24.4321 25.4902L24.2686 25.4736C24.4242 23.9387 24.7524 20.4072 24.7534 17.9282L24.9178 17.9283ZM24.432 10.3173C24.588 11.8584 24.9188 15.4229 24.9178 17.9283L24.7534 17.9282C24.7544 15.4323 24.4245 11.8755 24.2685 10.3338L24.432 10.3173ZM23.5042 9.48375C23.982 9.48375 24.3838 9.84056 24.432 10.3173L24.2685 10.3338C24.2289 9.94239 23.899 9.64808 23.5042 9.64808V9.48375ZM21.8853 9.48375H23.5042V9.64808H21.8853V9.48375ZM12.3491 10.5667C12.2689 9.99666 12.7103 9.48375 13.2868 9.48375V9.64808C12.8111 9.64808 12.4454 10.0718 12.5118 10.5438L12.3491 10.5667ZM13.0021 17.9282C13.0035 15.5464 12.58 12.2087 12.3491 10.5667L12.5118 10.5438C12.7427 12.1853 13.1678 15.5335 13.1665 17.9283L13.0021 17.9282ZM12.3493 25.2404C12.5796 23.6059 13.0008 20.2932 13.0021 17.9282L13.1665 17.9283C13.1651 20.3062 12.7423 23.6293 12.5121 25.2633L12.3493 25.2404ZM13.287 26.3236C12.7104 26.3236 12.269 25.8105 12.3493 25.2404L12.5121 25.2633C12.4455 25.7354 12.8112 26.1593 13.287 26.1593V26.3236ZM14.9059 26.3236H13.287V26.1593H14.9059V26.3236ZM15.8337 25.4902C15.7854 25.9669 15.3836 26.3236 14.9059 26.3236V26.1593C15.3006 26.1593 15.6305 25.865 15.6702 25.4736L15.8337 25.4902ZM16.3193 17.9283C16.3183 20.4166 15.9892 23.9558 15.8337 25.4902L15.6702 25.4736C15.8258 23.9387 16.154 20.4072 16.155 17.9282L16.3193 17.9283ZM16.3184 17.6785C16.319 17.7628 16.3194 17.8461 16.3193 17.9283L16.155 17.9282C16.155 17.8465 16.1547 17.7637 16.154 17.6798L16.3184 17.6785ZM16.2357 17.5969C16.9687 17.5925 17.9511 17.4675 18.4714 17.3934L18.4945 17.5561C17.9742 17.6302 16.9819 17.7567 16.2367 17.7613L16.2357 17.5969ZM18.4714 17.3934C18.6353 17.3701 18.7561 17.229 18.7561 17.0616H18.9204C18.9204 17.3091 18.7412 17.521 18.4945 17.5561L18.4714 17.3934ZM18.7561 17.0616V16.3342H18.9204V17.0616H18.7561ZM18.7561 16.3342C18.7561 16.1302 18.5779 15.9704 18.3737 15.9912L18.3571 15.8277C18.6568 15.7972 18.9204 16.0316 18.9204 16.3342H18.7561ZM18.3737 15.9912C17.8195 16.0475 16.8856 16.1303 16.1903 16.1299L16.1904 15.9656C16.8765 15.966 17.803 15.884 18.3571 15.8277L18.3737 15.9912ZM15.8336 10.3173C15.9533 11.5002 16.1757 13.8728 16.2724 16.0441L16.1083 16.0514C16.0118 13.8848 15.7897 11.5159 15.6701 10.3338L15.8336 10.3173ZM14.9058 9.48375C15.3835 9.48375 15.7853 9.84056 15.8336 10.3173L15.6701 10.3338C15.6305 9.94239 15.3006 9.64808 14.9058 9.64808V9.48375ZM13.2868 9.48375H14.9058V9.64808H13.2868V9.48375Z" fill="url(#paint1_linear_173_44969)"/>
<defs>
  <filter id="filter0_i_173_44969" x="12.3396" y="9.48389" width="12.5781" height="17.3328" filterUnits="userSpaceOnUse" color-interpolation-filters="sRGB">
    <feFlood flood-opacity="0" result="BackgroundImageFix"/>
    <feBlend mode="normal" in="SourceGraphic" in2="BackgroundImageFix" result="shape"/>
    <feColorMatrix in="SourceAlpha" type="matrix" values="0 0 0 0 0 0 0 0 0 0 0 0 0 0 0 0 0 0 127 0" result="hardAlpha"/>
    <feOffset dy="0.492988"/>
    <feGaussianBlur stdDeviation="0.410823"/>
    <feComposite in2="hardAlpha" operator="arithmetic" k2="-1" k3="1"/>
    <feColorMatrix type="matrix" values="0 0 0 0 0.764706 0 0 0 0 0.168627 0 0 0 0 0.560784 0 0 0 0.05 0"/>
    <feBlend mode="normal" in2="shape" result="effect1_innerShadow_173_44969"/>
  </filter>
  <linearGradient id="paint0_linear_173_44969" x1="-2.15273" y1="7.4958" x2="31.9954" y2="32.3025" gradientUnits="userSpaceOnUse">
    <stop stop-color="white"/>
    <stop offset="0.375" stop-color="#A2CD37"/>
    <stop offset="1" stop-color="#C1358A"/>
  </linearGradient>
  <linearGradient id="paint1_linear_173_44969" x1="28.6451" y1="5.89823" x2="13.5522" y2="27.29" gradientUnits="userSpaceOnUse">
    <stop stop-color="#C32B8F"/>
    <stop offset="1" stop-color="#A2CD37"/>
  </linearGradient>
</defs>
</svg>