<svg xmlns="http://www.w3.org/2000/svg" width="25" height="25" viewBox="0 0 25 25" fill="none">
<path d="M9.46729 14.4741L15.4673 8.47412M9.96731 8.97412H9.97731M14.9673 13.9741H14.9773M19.4673 21.4741V5.47412C19.4673 4.36955 18.5719 3.47412 17.4673 3.47412H7.46729C6.36272 3.47412 5.46729 4.36955 5.46729 5.47412V21.4741L8.96729 19.4741L12.4673 21.4741L15.9673 19.4741L19.4673 21.4741ZM10.4673 8.97412C10.4673 9.25026 10.2434 9.47412 9.96729 9.47412C9.69114 9.47412 9.46729 9.25026 9.46729 8.97412C9.46729 8.69798 9.69114 8.47412 9.96729 8.47412C10.2434 8.47412 10.4673 8.69798 10.4673 8.97412ZM15.4673 13.9741C15.4673 14.2503 15.2434 14.4741 14.9673 14.4741C14.6911 14.4741 14.4673 14.2503 14.4673 13.9741C14.4673 13.698 14.6911 13.4741 14.9673 13.4741C15.2434 13.4741 15.4673 13.698 15.4673 13.9741Z" stroke="#111827" stroke-width="2" stroke-linecap="round" stroke-linejoin="round"/>
</svg>