<svg width="20" height="20" viewBox="0 0 20 20" fill="none" xmlns="http://www.w3.org/2000/svg">
<path d="M15.0371 5.24414H17.0371C18.1417 5.24414 19.0371 6.13957 19.0371 7.24414V13.2441C19.0371 14.3487 18.1417 15.2441 17.0371 15.2441H15.0371V19.2441L11.0371 15.2441H7.03711C6.48482 15.2441 5.98482 15.0203 5.6229 14.6584M5.6229 14.6584L9.03711 11.2441H13.0371C14.1417 11.2441 15.0371 10.3487 15.0371 9.24414V3.24414C15.0371 2.13957 14.1417 1.24414 13.0371 1.24414H3.03711C1.93254 1.24414 1.03711 2.13957 1.03711 3.24414V9.24414C1.03711 10.3487 1.93254 11.2441 3.03711 11.2441H5.03711V15.2441L5.6229 14.6584Z" stroke="#C32B8F" stroke-width="1.33793" stroke-linecap="round" stroke-linejoin="round"/>
</svg>
