<svg width="18" height="20" viewBox="0 0 18 20" fill="none" xmlns="http://www.w3.org/2000/svg">
<path d="M2.26151 12.5712L2.43724 12.3955V12.147V7.84404C2.43724 4.19896 5.39216 1.24404 9.03724 1.24404C12.6823 1.24404 15.6372 4.19896 15.6372 7.84404V12.147V12.3955L15.813 12.5712L16.6615 13.4198C16.8331 13.5914 16.8844 13.8494 16.7916 14.0737C16.6987 14.2979 16.4799 14.444 16.2372 14.444H1.83724C1.59456 14.444 1.37578 14.2979 1.28291 14.0737C1.19005 13.8494 1.24138 13.5914 1.41298 13.4198L0.992145 12.9989L1.41298 13.4198L2.26151 12.5712ZM9.03721 19.244C7.58583 19.244 6.37518 18.2134 6.09722 16.844H11.9772C11.6992 18.2134 10.4886 19.244 9.03721 19.244Z" stroke="#C32B8F" stroke-width="1.2"/>
</svg>
