<svg width="80" height="81" viewBox="0 0 80 81" fill="none" xmlns="http://www.w3.org/2000/svg">
<rect y="0.679199" width="80" height="80" rx="40" fill="url(#paint0_linear_243_1214)"/>
<g filter="url(#filter0_i_243_1214)">
<path fill-rule="evenodd" clip-rule="evenodd" d="M48.6197 18.4439C47.2532 18.4439 46.205 19.6591 46.3957 21.0122C46.7121 23.2575 47.1697 26.7331 47.538 30.4511C47.2133 30.435 46.8989 30.4252 46.6026 30.4237C44.6025 30.4131 41.8179 30.7684 40.391 30.9721C39.8577 31.0483 39.4676 31.5066 39.4676 32.0454V34.0432C39.4676 34.701 40.0407 35.213 40.6952 35.1463C42.1884 34.9941 44.7398 34.767 46.6026 34.7742C47.0109 34.7758 47.4541 34.7889 47.9116 34.81C48.0581 36.8857 48.1502 38.919 48.1492 40.7434C48.1456 47.1013 47.0081 56.0103 46.3964 60.3431C46.2053 61.6963 47.2536 62.912 48.6202 62.912H53.06C54.193 62.912 55.1431 62.0669 55.2575 60.9396C55.6701 56.8761 56.5542 47.3953 56.5568 40.7434C56.5595 34.0462 55.6709 24.4979 55.2573 20.4166C55.143 19.2892 54.1928 18.4439 53.0597 18.4439H48.6197ZM25.6908 18.4439C24.3243 18.4439 23.2761 19.6591 23.4668 21.0122C24.0803 25.3647 25.2239 34.3406 25.2203 40.7434C25.2167 47.1013 24.0792 56.0103 23.4675 60.3431C23.2764 61.6963 24.3247 62.912 25.6914 62.912H30.1311C31.2641 62.912 32.2142 62.0669 32.3287 60.9396C32.7412 56.8761 33.6253 47.3953 33.6279 40.7434C33.628 40.5252 33.6272 40.3038 33.6254 40.0798C35.6078 40.0676 38.2597 39.7285 39.6404 39.5314C40.1737 39.4553 40.5638 38.9969 40.5638 38.4582V36.4604C40.5638 35.8025 39.9907 35.2905 39.3362 35.3572C37.8628 35.5074 35.359 35.7306 33.5031 35.7295C33.2441 29.9129 32.6462 23.5517 32.3284 20.4166C32.2141 19.2892 31.2639 18.4439 30.1308 18.4439H25.6908Z" fill="white"/>
</g>
<path d="M46.3957 21.0122L46.6071 20.9824V20.9824L46.3957 21.0122ZM47.5381 30.4511L47.7505 30.4301L47.7749 30.6766L47.5275 30.6643L47.5381 30.4511ZM46.6027 30.4237L46.6015 30.6371L46.6027 30.4237ZM40.3911 30.9721L40.3609 30.7609L40.3911 30.9721ZM40.6953 35.1463L40.7169 35.3586L40.6953 35.1463ZM46.6027 34.7742L46.6035 34.5608H46.6035L46.6027 34.7742ZM47.9117 34.81L47.9215 34.5968L48.1112 34.6055L48.1246 34.7949L47.9117 34.81ZM48.1492 40.7434L47.9358 40.7433L48.1492 40.7434ZM46.3964 60.3431L46.1851 60.3132L46.3964 60.3431ZM55.2576 60.9396L55.4699 60.9612L55.2576 60.9396ZM56.5569 40.7434L56.7703 40.7435L56.5569 40.7434ZM55.2573 20.4166L55.045 20.4381L55.2573 20.4166ZM23.4669 21.0122L23.6782 20.9824V20.9824L23.4669 21.0122ZM25.2204 40.7434L25.007 40.7433L25.2204 40.7434ZM23.4676 60.3431L23.6789 60.3729L23.4676 60.3431ZM32.3287 60.9396L32.1164 60.9181L32.3287 60.9396ZM33.628 40.7434L33.8414 40.7435L33.628 40.7434ZM33.6255 40.0798L33.4121 40.0814L33.4104 39.8677L33.6242 39.8664L33.6255 40.0798ZM39.6404 39.5314L39.6103 39.3201L39.6404 39.5314ZM39.3362 35.3572L39.3579 35.5695L39.3362 35.3572ZM33.5032 35.7295L33.5031 35.9429L33.2991 35.9428L33.29 35.739L33.5032 35.7295ZM32.3284 20.4166L32.1161 20.4381V20.4381L32.3284 20.4166ZM46.1844 21.042C45.9758 19.5614 47.1225 18.2305 48.6197 18.2305V18.6573C47.384 18.6573 46.4343 19.7567 46.6071 20.9824L46.1844 21.042ZM47.3257 30.4722C46.9578 26.758 46.5006 23.2856 46.1844 21.042L46.6071 20.9824C46.9238 23.2294 47.3817 26.7081 47.7505 30.4301L47.3257 30.4722ZM46.6038 30.2103C46.9038 30.2118 47.2215 30.2217 47.5487 30.238L47.5275 30.6643C47.2052 30.6483 46.894 30.6386 46.6015 30.6371L46.6038 30.2103ZM40.3609 30.7609C41.7872 30.5572 44.5861 30.1996 46.6038 30.2103L46.6015 30.6371C44.619 30.6266 41.8487 30.9796 40.4212 31.1834L40.3609 30.7609ZM39.2542 32.0454C39.2542 31.4025 39.7203 30.8523 40.3609 30.7609L40.4212 31.1834C39.9951 31.2442 39.6811 31.6107 39.6811 32.0454H39.2542ZM39.2542 34.0431V32.0454H39.6811V34.0431H39.2542ZM40.7169 35.3586C39.9382 35.438 39.2542 34.8289 39.2542 34.0431H39.6811C39.6811 34.5731 40.1434 34.988 40.6737 34.934L40.7169 35.3586ZM46.6018 34.9876C44.7514 34.9804 42.2101 35.2064 40.7169 35.3586L40.6737 34.934C42.1668 34.7818 44.7282 34.5535 46.6035 34.5608L46.6018 34.9876ZM47.9019 35.0231C47.4464 35.0022 47.0064 34.9892 46.6018 34.9876L46.6035 34.5608C47.0156 34.5624 47.4618 34.5756 47.9215 34.5968L47.9019 35.0231ZM47.9358 40.7433C47.9369 38.9256 47.8451 36.8977 47.6988 34.825L48.1246 34.7949C48.2712 36.8737 48.3637 38.9124 48.3626 40.7436L47.9358 40.7433ZM46.1851 60.3132C46.7969 55.9798 47.9323 47.0844 47.9358 40.7433L48.3626 40.7436C48.3591 47.1182 47.2193 56.0409 46.6077 60.3729L46.1851 60.3132ZM48.6203 63.1254C47.1229 63.1254 45.9761 61.7939 46.1851 60.3132L46.6077 60.3729C46.4347 61.5987 47.3844 62.6986 48.6203 62.6986V63.1254ZM53.06 63.1254H48.6203V62.6986H53.06V63.1254ZM55.4699 60.9612C55.3442 62.1991 54.3008 63.1254 53.06 63.1254V62.6986C54.0853 62.6986 54.9421 61.9346 55.0453 60.9181L55.4699 60.9612ZM56.7703 40.7435C56.7676 47.4076 55.8824 56.8983 55.4699 60.9612L55.0453 60.9181C55.4579 56.8538 56.3408 47.3831 56.3435 40.7433L56.7703 40.7435ZM55.4696 20.3951C55.8832 24.4756 56.7729 34.0341 56.7703 40.7435L56.3435 40.7433C56.3461 34.0584 55.4588 24.5202 55.045 20.4381L55.4696 20.3951ZM53.0597 18.2305C54.3006 18.2305 55.3441 19.157 55.4696 20.3951L55.045 20.4381C54.942 19.4215 54.0852 18.6573 53.0597 18.6573V18.2305ZM48.6197 18.2305H53.0597V18.6573H48.6197V18.2305ZM23.2556 21.042C23.0469 19.5614 24.1937 18.2305 25.6909 18.2305V18.6573C24.4551 18.6573 23.5054 19.7567 23.6782 20.9824L23.2556 21.042ZM25.007 40.7433C25.0105 34.3573 23.8691 25.3952 23.2556 21.042L23.6782 20.9824C24.2915 25.3342 25.4374 34.3238 25.4338 40.7436L25.007 40.7433ZM23.2563 60.3132C23.8681 55.9798 25.0034 47.0844 25.007 40.7433L25.4338 40.7436C25.4302 47.1182 24.2905 56.0409 23.6789 60.3729L23.2563 60.3132ZM25.6914 63.1254C24.194 63.1254 23.0472 61.7939 23.2563 60.3132L23.6789 60.3729C23.5058 61.5987 24.4555 62.6986 25.6914 62.6986V63.1254ZM30.1311 63.1254H25.6914V62.6986H30.1311V63.1254ZM32.541 60.9612C32.4153 62.1991 31.3719 63.1254 30.1311 63.1254V62.6986C31.1565 62.6986 32.0132 61.9346 32.1164 60.9181L32.541 60.9612ZM33.8414 40.7435C33.8388 47.4076 32.9535 56.8983 32.541 60.9612L32.1164 60.9181C32.5291 56.8538 33.412 47.3831 33.4146 40.7433L33.8414 40.7435ZM33.8389 40.0781C33.8406 40.3027 33.8415 40.5246 33.8414 40.7435L33.4146 40.7433C33.4147 40.5257 33.4138 40.3049 33.4121 40.0814L33.8389 40.0781ZM33.6242 39.8664C35.5905 39.8543 38.2296 39.5173 39.6103 39.3201L39.6706 39.7427C38.2899 39.9398 35.6251 40.2809 33.6268 40.2932L33.6242 39.8664ZM39.6103 39.3201C40.0364 39.2593 40.3505 38.8928 40.3505 38.4581H40.7773C40.7773 39.101 40.3112 39.6512 39.6706 39.7427L39.6103 39.3201ZM40.3505 38.4581V36.4604H40.7773V38.4581H40.3505ZM40.3505 36.4604C40.3505 35.9304 39.8881 35.5155 39.3579 35.5695L39.3146 35.1449C40.0934 35.0656 40.7773 35.6746 40.7773 36.4604H40.3505ZM39.3579 35.5695C37.8844 35.7197 35.3709 35.944 33.5031 35.9429L33.5033 35.5161C35.3472 35.5172 37.8413 35.2951 39.3146 35.1449L39.3579 35.5695ZM32.5408 20.3951C32.8587 23.5313 33.4571 29.8972 33.7164 35.72L33.29 35.739C33.0313 29.9285 32.4338 23.5721 32.1161 20.4381L32.5408 20.3951ZM30.1309 18.2305C31.3717 18.2305 32.4153 19.157 32.5408 20.3951L32.1161 20.4381C32.0131 19.4215 31.1563 18.6573 30.1309 18.6573V18.2305ZM25.6909 18.2305H30.1309V18.6573H25.6909V18.2305Z" fill="url(#paint1_linear_243_1214)"/>
<defs>
<filter id="filter0_i_243_1214" x="23.231" y="18.2305" width="33.5393" height="46.1754" filterUnits="userSpaceOnUse" color-interpolation-filters="sRGB">
<feFlood flood-opacity="0" result="BackgroundImageFix"/>
<feBlend mode="normal" in="SourceGraphic" in2="BackgroundImageFix" result="shape"/>
<feColorMatrix in="SourceAlpha" type="matrix" values="0 0 0 0 0 0 0 0 0 0 0 0 0 0 0 0 0 0 127 0" result="hardAlpha"/>
<feOffset dy="1.28041"/>
<feGaussianBlur stdDeviation="1.06701"/>
<feComposite in2="hardAlpha" operator="arithmetic" k2="-1" k3="1"/>
<feColorMatrix type="matrix" values="0 0 0 0 0.764706 0 0 0 0 0.168627 0 0 0 0 0.560784 0 0 0 0.05 0"/>
<feBlend mode="normal" in2="shape" result="effect1_innerShadow_243_1214"/>
</filter>
<linearGradient id="paint0_linear_243_1214" x1="-15.4118" y1="12.9232" x2="75.6498" y2="79.0743" gradientUnits="userSpaceOnUse">
<stop stop-color="white"/>
<stop offset="0.375" stop-color="#A2CD37"/>
<stop offset="1" stop-color="#C1358A"/>
</linearGradient>
<linearGradient id="paint1_linear_243_1214" x1="66.7184" y1="8.66335" x2="26.4742" y2="65.7183" gradientUnits="userSpaceOnUse">
<stop stop-color="#C32B8F"/>
<stop offset="1" stop-color="#A2CD37"/>
</linearGradient>
</defs>
</svg>
